<mxfile host="app.diagrams.net" modified="2024-06-17T05:53:03.163Z" agent="Mozilla/5.0 (Windows NT 10.0; Win64; x64) AppleWebKit/537.36 (KHTML, like Gecko) Chrome/125.0.0.0 Safari/537.36" etag="eu1yLarxAAZVPuToZXMu" version="24.5.4" type="device">
  <diagram name="Page-1" id="fHtjaYZisIco3m9Lkhtc">
    <mxGraphModel dx="954" dy="592" grid="1" gridSize="10" guides="1" tooltips="1" connect="1" arrows="1" fold="1" page="1" pageScale="1" pageWidth="827" pageHeight="1169" math="0" shadow="0">
      <root>
        <mxCell id="0" />
        <mxCell id="1" parent="0" />
        <mxCell id="5rjJDWqNnwEzxwZfXGN3-1" value="&lt;span style=&quot;background-color: rgb(153, 153, 255);&quot;&gt;module.exports=require(&amp;lt;path&amp;gt;)&lt;/span&gt;" style="rounded=0;whiteSpace=wrap;html=1;" vertex="1" parent="1">
          <mxGeometry x="360" y="250" width="170" height="90" as="geometry" />
        </mxCell>
      </root>
    </mxGraphModel>
  </diagram>
</mxfile>
